<mxfile host="app.diagrams.net" agent="Mozilla/5.0 (Windows NT 10.0; Win64; x64) AppleWebKit/537.36 (KHTML, like Gecko) Chrome/132.0.0.0 Safari/537.36" version="26.0.11" pages="2">
  <diagram name="Mysql Connection" id="JUeEn6GkD4iwLYCMjKRs">
    <mxGraphModel dx="1246" dy="412" grid="1" gridSize="10" guides="1" tooltips="1" connect="1" arrows="1" fold="1" page="1" pageScale="1" pageWidth="850" pageHeight="1100" math="0" shadow="0">
      <root>
        <mxCell id="0" />
        <mxCell id="1" parent="0" />
        <mxCell id="sIcSl6QBLDS8RnbMVan6-1" value="" style="shape=datastore;whiteSpace=wrap;html=1;" vertex="1" parent="1">
          <mxGeometry x="60" y="210" width="110" height="130" as="geometry" />
        </mxCell>
        <mxCell id="sIcSl6QBLDS8RnbMVan6-2" value="" style="swimlane;startSize=0;" vertex="1" parent="1">
          <mxGeometry x="250" y="50" width="260" height="350" as="geometry" />
        </mxCell>
        <mxCell id="sIcSl6QBLDS8RnbMVan6-3" value="&lt;font style=&quot;font-size: 16px;&quot;&gt;Web Server&lt;/font&gt;" style="text;html=1;align=center;verticalAlign=middle;whiteSpace=wrap;rounded=0;" vertex="1" parent="sIcSl6QBLDS8RnbMVan6-2">
          <mxGeometry x="40" y="30" width="170" height="30" as="geometry" />
        </mxCell>
        <mxCell id="sIcSl6QBLDS8RnbMVan6-5" value="" style="rounded=0;whiteSpace=wrap;html=1;" vertex="1" parent="sIcSl6QBLDS8RnbMVan6-2">
          <mxGeometry x="80" y="80" width="120" height="60" as="geometry" />
        </mxCell>
        <mxCell id="sIcSl6QBLDS8RnbMVan6-6" value="PHP Interpreter" style="text;html=1;align=center;verticalAlign=middle;whiteSpace=wrap;rounded=0;" vertex="1" parent="sIcSl6QBLDS8RnbMVan6-2">
          <mxGeometry x="90" y="95" width="100" height="30" as="geometry" />
        </mxCell>
        <mxCell id="sIcSl6QBLDS8RnbMVan6-11" value="PHP FILE" style="rounded=1;whiteSpace=wrap;html=1;" vertex="1" parent="sIcSl6QBLDS8RnbMVan6-2">
          <mxGeometry x="80" y="240" width="120" height="60" as="geometry" />
        </mxCell>
        <mxCell id="sIcSl6QBLDS8RnbMVan6-15" value="" style="endArrow=classic;html=1;rounded=0;exitX=0.5;exitY=0;exitDx=0;exitDy=0;entryX=0.5;entryY=1;entryDx=0;entryDy=0;" edge="1" parent="sIcSl6QBLDS8RnbMVan6-2" source="sIcSl6QBLDS8RnbMVan6-11" target="sIcSl6QBLDS8RnbMVan6-5">
          <mxGeometry width="50" height="50" relative="1" as="geometry">
            <mxPoint x="390" y="290" as="sourcePoint" />
            <mxPoint x="137.01999999999998" y="199.34000000000003" as="targetPoint" />
          </mxGeometry>
        </mxCell>
        <mxCell id="sIcSl6QBLDS8RnbMVan6-16" value="Pass" style="text;html=1;align=center;verticalAlign=middle;whiteSpace=wrap;rounded=0;" vertex="1" parent="sIcSl6QBLDS8RnbMVan6-2">
          <mxGeometry x="90" y="170" width="60" height="30" as="geometry" />
        </mxCell>
        <mxCell id="sIcSl6QBLDS8RnbMVan6-17" value="To" style="text;html=1;align=center;verticalAlign=middle;whiteSpace=wrap;rounded=0;" vertex="1" parent="sIcSl6QBLDS8RnbMVan6-2">
          <mxGeometry x="130" y="170" width="60" height="30" as="geometry" />
        </mxCell>
        <mxCell id="sIcSl6QBLDS8RnbMVan6-4" value="" style="curved=1;endArrow=classic;html=1;rounded=0;exitX=0;exitY=0.5;exitDx=0;exitDy=0;entryX=0.5;entryY=0;entryDx=0;entryDy=0;fillColor=#d80073;strokeColor=#A50040;strokeWidth=2;" edge="1" parent="1" source="sIcSl6QBLDS8RnbMVan6-5" target="sIcSl6QBLDS8RnbMVan6-1">
          <mxGeometry width="50" height="50" relative="1" as="geometry">
            <mxPoint x="201.76" y="176.79999999999995" as="sourcePoint" />
            <mxPoint x="60" y="180" as="targetPoint" />
            <Array as="points">
              <mxPoint x="75" y="80" />
            </Array>
          </mxGeometry>
        </mxCell>
        <mxCell id="sIcSl6QBLDS8RnbMVan6-7" value="" style="whiteSpace=wrap;html=1;aspect=fixed;" vertex="1" parent="1">
          <mxGeometry x="600" y="115" width="200" height="200" as="geometry" />
        </mxCell>
        <mxCell id="sIcSl6QBLDS8RnbMVan6-8" value="&lt;h1 style=&quot;margin-top: 0px;&quot;&gt;&lt;font style=&quot;font-size: 18px;&quot;&gt;WEB BROWSER&lt;/font&gt;&lt;/h1&gt;&lt;div&gt;&lt;span style=&quot;font-size: 18px; background-color: transparent; color: light-dark(rgb(0, 0, 0), rgb(255, 255, 255));&quot;&gt;Chrome&lt;/span&gt;&lt;/div&gt;&lt;div&gt;&lt;span style=&quot;font-size: 18px; background-color: transparent; color: light-dark(rgb(0, 0, 0), rgb(255, 255, 255));&quot;&gt;Edge&lt;/span&gt;&lt;/div&gt;&lt;div&gt;&lt;span style=&quot;font-size: 18px; background-color: transparent; color: light-dark(rgb(0, 0, 0), rgb(255, 255, 255));&quot;&gt;Fire Fox&lt;/span&gt;&lt;/div&gt;&lt;div&gt;&lt;span style=&quot;font-size: 18px; background-color: transparent; color: light-dark(rgb(0, 0, 0), rgb(255, 255, 255));&quot;&gt;Etc.&lt;/span&gt;&lt;/div&gt;" style="text;html=1;whiteSpace=wrap;overflow=hidden;rounded=0;" vertex="1" parent="1">
          <mxGeometry x="610" y="130" width="180" height="170" as="geometry" />
        </mxCell>
        <mxCell id="sIcSl6QBLDS8RnbMVan6-10" value="" style="edgeStyle=elbowEdgeStyle;elbow=horizontal;endArrow=classic;html=1;curved=0;rounded=0;endSize=8;startSize=8;fillColor=#d80073;strokeColor=#A50040;strokeWidth=2;exitX=0.003;exitY=0.548;exitDx=0;exitDy=0;exitPerimeter=0;" edge="1" parent="1" source="sIcSl6QBLDS8RnbMVan6-7" target="sIcSl6QBLDS8RnbMVan6-11">
          <mxGeometry width="50" height="50" relative="1" as="geometry">
            <mxPoint x="590" y="250" as="sourcePoint" />
            <mxPoint x="530" y="300" as="targetPoint" />
          </mxGeometry>
        </mxCell>
        <mxCell id="sIcSl6QBLDS8RnbMVan6-18" value="Mysql" style="text;html=1;align=center;verticalAlign=middle;whiteSpace=wrap;rounded=0;" vertex="1" parent="1">
          <mxGeometry x="80" y="270" width="60" height="30" as="geometry" />
        </mxCell>
        <mxCell id="sIcSl6QBLDS8RnbMVan6-19" value="data is manipulated" style="text;html=1;align=center;verticalAlign=middle;whiteSpace=wrap;rounded=0;" vertex="1" parent="1">
          <mxGeometry x="90" y="100" width="110" height="30" as="geometry" />
        </mxCell>
        <mxCell id="sIcSl6QBLDS8RnbMVan6-22" value="" style="endArrow=classic;html=1;rounded=0;entryX=-0.02;entryY=0.095;entryDx=0;entryDy=0;entryPerimeter=0;exitX=1;exitY=0.25;exitDx=0;exitDy=0;fillColor=#a20025;strokeColor=#6F0000;strokeWidth=2;" edge="1" parent="1" source="sIcSl6QBLDS8RnbMVan6-5" target="sIcSl6QBLDS8RnbMVan6-7">
          <mxGeometry width="50" height="50" relative="1" as="geometry">
            <mxPoint x="480" y="170" as="sourcePoint" />
            <mxPoint x="530" y="120" as="targetPoint" />
          </mxGeometry>
        </mxCell>
        <mxCell id="sIcSl6QBLDS8RnbMVan6-23" value="Dynamic Page" style="text;html=1;align=center;verticalAlign=middle;whiteSpace=wrap;rounded=0;" vertex="1" parent="1">
          <mxGeometry x="520" y="100" width="60" height="30" as="geometry" />
        </mxCell>
        <mxCell id="sIcSl6QBLDS8RnbMVan6-25" value="page request" style="text;html=1;align=center;verticalAlign=middle;whiteSpace=wrap;rounded=0;" vertex="1" parent="1">
          <mxGeometry x="520" y="190" width="60" height="30" as="geometry" />
        </mxCell>
      </root>
    </mxGraphModel>
  </diagram>
  <diagram id="LS-uIqoZ-VwCtXDVifek" name="Page-2">
    <mxGraphModel dx="1780" dy="1689" grid="1" gridSize="10" guides="1" tooltips="1" connect="1" arrows="1" fold="1" page="1" pageScale="1" pageWidth="850" pageHeight="1100" math="0" shadow="0">
      <root>
        <mxCell id="0" />
        <mxCell id="1" parent="0" />
        <mxCell id="hFmSIp24Sq1qc8hDh7Aj-2" value="" style="whiteSpace=wrap;html=1;aspect=fixed;" vertex="1" parent="1">
          <mxGeometry x="100" y="-90" width="520" height="520" as="geometry" />
        </mxCell>
        <mxCell id="hFmSIp24Sq1qc8hDh7Aj-3" value="" style="shape=cylinder3;whiteSpace=wrap;html=1;boundedLbl=1;backgroundOutline=1;size=15;" vertex="1" parent="1">
          <mxGeometry x="150" y="90" width="180" height="270" as="geometry" />
        </mxCell>
        <mxCell id="hFmSIp24Sq1qc8hDh7Aj-6" value="&lt;font style=&quot;font-size: 19px;&quot;&gt;MYSQL&amp;nbsp;&lt;/font&gt;" style="text;html=1;align=center;verticalAlign=middle;whiteSpace=wrap;rounded=0;" vertex="1" parent="1">
          <mxGeometry x="150" y="-20" width="400" height="30" as="geometry" />
        </mxCell>
        <mxCell id="hFmSIp24Sq1qc8hDh7Aj-7" value="Database 1: shopping Cart" style="text;html=1;align=center;verticalAlign=middle;whiteSpace=wrap;rounded=0;" vertex="1" parent="1">
          <mxGeometry x="180" y="55" width="100" height="30" as="geometry" />
        </mxCell>
        <mxCell id="hFmSIp24Sq1qc8hDh7Aj-8" value="Database 2: Management" style="text;html=1;align=center;verticalAlign=middle;whiteSpace=wrap;rounded=0;" vertex="1" parent="1">
          <mxGeometry x="420" y="50" width="140" height="30" as="geometry" />
        </mxCell>
        <mxCell id="hFmSIp24Sq1qc8hDh7Aj-22" value="" style="shape=table;startSize=0;container=1;collapsible=0;childLayout=tableLayout;fontSize=16;movable=0;resizable=0;rotatable=0;deletable=0;editable=0;locked=1;connectable=0;" vertex="1" parent="1">
          <mxGeometry x="170" y="270" width="60" height="50" as="geometry" />
        </mxCell>
        <mxCell id="hFmSIp24Sq1qc8hDh7Aj-27" value="" style="shape=tableRow;horizontal=0;startSize=0;swimlaneHead=0;swimlaneBody=0;strokeColor=inherit;top=0;left=0;bottom=0;right=0;collapsible=0;dropTarget=0;fillColor=none;points=[[0,0.5],[1,0.5]];portConstraint=eastwest;fontSize=16;movable=0;resizable=0;rotatable=0;deletable=0;editable=0;locked=1;connectable=0;" vertex="1" parent="hFmSIp24Sq1qc8hDh7Aj-22">
          <mxGeometry width="60" height="16" as="geometry" />
        </mxCell>
        <mxCell id="hFmSIp24Sq1qc8hDh7Aj-28" value="" style="shape=partialRectangle;html=1;whiteSpace=wrap;connectable=0;strokeColor=inherit;overflow=hidden;fillColor=none;top=0;left=0;bottom=0;right=0;pointerEvents=1;fontSize=16;movable=0;resizable=0;rotatable=0;deletable=0;editable=0;locked=1;" vertex="1" parent="hFmSIp24Sq1qc8hDh7Aj-27">
          <mxGeometry width="20" height="16" as="geometry">
            <mxRectangle width="20" height="16" as="alternateBounds" />
          </mxGeometry>
        </mxCell>
        <mxCell id="hFmSIp24Sq1qc8hDh7Aj-29" value="" style="shape=partialRectangle;html=1;whiteSpace=wrap;connectable=0;strokeColor=inherit;overflow=hidden;fillColor=none;top=0;left=0;bottom=0;right=0;pointerEvents=1;fontSize=16;movable=0;resizable=0;rotatable=0;deletable=0;editable=0;locked=1;" vertex="1" parent="hFmSIp24Sq1qc8hDh7Aj-27">
          <mxGeometry x="20" width="20" height="16" as="geometry">
            <mxRectangle width="20" height="16" as="alternateBounds" />
          </mxGeometry>
        </mxCell>
        <mxCell id="hFmSIp24Sq1qc8hDh7Aj-30" value="" style="shape=partialRectangle;html=1;whiteSpace=wrap;connectable=0;strokeColor=inherit;overflow=hidden;fillColor=none;top=0;left=0;bottom=0;right=0;pointerEvents=1;fontSize=16;movable=0;resizable=0;rotatable=0;deletable=0;editable=0;locked=1;" vertex="1" parent="hFmSIp24Sq1qc8hDh7Aj-27">
          <mxGeometry x="40" width="20" height="16" as="geometry">
            <mxRectangle width="20" height="16" as="alternateBounds" />
          </mxGeometry>
        </mxCell>
        <mxCell id="hFmSIp24Sq1qc8hDh7Aj-31" value="" style="shape=tableRow;horizontal=0;startSize=0;swimlaneHead=0;swimlaneBody=0;strokeColor=inherit;top=0;left=0;bottom=0;right=0;collapsible=0;dropTarget=0;fillColor=none;points=[[0,0.5],[1,0.5]];portConstraint=eastwest;fontSize=16;movable=0;resizable=0;rotatable=0;deletable=0;editable=0;locked=1;connectable=0;" vertex="1" parent="hFmSIp24Sq1qc8hDh7Aj-22">
          <mxGeometry y="16" width="60" height="17" as="geometry" />
        </mxCell>
        <mxCell id="hFmSIp24Sq1qc8hDh7Aj-32" value="" style="shape=partialRectangle;html=1;whiteSpace=wrap;connectable=0;strokeColor=inherit;overflow=hidden;fillColor=none;top=0;left=0;bottom=0;right=0;pointerEvents=1;fontSize=16;movable=0;resizable=0;rotatable=0;deletable=0;editable=0;locked=1;" vertex="1" parent="hFmSIp24Sq1qc8hDh7Aj-31">
          <mxGeometry width="20" height="17" as="geometry">
            <mxRectangle width="20" height="17" as="alternateBounds" />
          </mxGeometry>
        </mxCell>
        <mxCell id="hFmSIp24Sq1qc8hDh7Aj-33" value="" style="shape=partialRectangle;html=1;whiteSpace=wrap;connectable=0;strokeColor=inherit;overflow=hidden;fillColor=none;top=0;left=0;bottom=0;right=0;pointerEvents=1;fontSize=16;movable=0;resizable=0;rotatable=0;deletable=0;editable=0;locked=1;" vertex="1" parent="hFmSIp24Sq1qc8hDh7Aj-31">
          <mxGeometry x="20" width="20" height="17" as="geometry">
            <mxRectangle width="20" height="17" as="alternateBounds" />
          </mxGeometry>
        </mxCell>
        <mxCell id="hFmSIp24Sq1qc8hDh7Aj-34" value="" style="shape=partialRectangle;html=1;whiteSpace=wrap;connectable=0;strokeColor=inherit;overflow=hidden;fillColor=none;top=0;left=0;bottom=0;right=0;pointerEvents=1;fontSize=16;movable=0;resizable=0;rotatable=0;deletable=0;editable=0;locked=1;" vertex="1" parent="hFmSIp24Sq1qc8hDh7Aj-31">
          <mxGeometry x="40" width="20" height="17" as="geometry">
            <mxRectangle width="20" height="17" as="alternateBounds" />
          </mxGeometry>
        </mxCell>
        <mxCell id="hFmSIp24Sq1qc8hDh7Aj-23" value="" style="shape=tableRow;horizontal=0;startSize=0;swimlaneHead=0;swimlaneBody=0;strokeColor=inherit;top=0;left=0;bottom=0;right=0;collapsible=0;dropTarget=0;fillColor=none;points=[[0,0.5],[1,0.5]];portConstraint=eastwest;fontSize=16;movable=0;resizable=0;rotatable=0;deletable=0;editable=0;locked=1;connectable=0;" vertex="1" parent="hFmSIp24Sq1qc8hDh7Aj-22">
          <mxGeometry y="33" width="60" height="17" as="geometry" />
        </mxCell>
        <mxCell id="hFmSIp24Sq1qc8hDh7Aj-24" value="" style="shape=partialRectangle;html=1;whiteSpace=wrap;connectable=0;strokeColor=inherit;overflow=hidden;fillColor=none;top=0;left=0;bottom=0;right=0;pointerEvents=1;fontSize=16;movable=0;resizable=0;rotatable=0;deletable=0;editable=0;locked=1;" vertex="1" parent="hFmSIp24Sq1qc8hDh7Aj-23">
          <mxGeometry width="20" height="17" as="geometry">
            <mxRectangle width="20" height="17" as="alternateBounds" />
          </mxGeometry>
        </mxCell>
        <mxCell id="hFmSIp24Sq1qc8hDh7Aj-25" value="" style="shape=partialRectangle;html=1;whiteSpace=wrap;connectable=0;strokeColor=inherit;overflow=hidden;fillColor=none;top=0;left=0;bottom=0;right=0;pointerEvents=1;fontSize=16;movable=0;resizable=0;rotatable=0;deletable=0;editable=0;locked=1;" vertex="1" parent="hFmSIp24Sq1qc8hDh7Aj-23">
          <mxGeometry x="20" width="20" height="17" as="geometry">
            <mxRectangle width="20" height="17" as="alternateBounds" />
          </mxGeometry>
        </mxCell>
        <mxCell id="hFmSIp24Sq1qc8hDh7Aj-26" value="" style="shape=partialRectangle;html=1;whiteSpace=wrap;connectable=0;strokeColor=inherit;overflow=hidden;fillColor=none;top=0;left=0;bottom=0;right=0;pointerEvents=1;fontSize=16;movable=0;resizable=0;rotatable=0;deletable=0;editable=0;locked=1;" vertex="1" parent="hFmSIp24Sq1qc8hDh7Aj-23">
          <mxGeometry x="40" width="20" height="17" as="geometry">
            <mxRectangle width="20" height="17" as="alternateBounds" />
          </mxGeometry>
        </mxCell>
        <mxCell id="hFmSIp24Sq1qc8hDh7Aj-35" value="" style="shape=table;startSize=0;container=1;collapsible=0;childLayout=tableLayout;fontSize=16;movable=0;resizable=0;rotatable=0;deletable=0;editable=0;locked=1;connectable=0;" vertex="1" parent="1">
          <mxGeometry x="250" y="270" width="60" height="53" as="geometry" />
        </mxCell>
        <mxCell id="hFmSIp24Sq1qc8hDh7Aj-36" value="" style="shape=tableRow;horizontal=0;startSize=0;swimlaneHead=0;swimlaneBody=0;strokeColor=inherit;top=0;left=0;bottom=0;right=0;collapsible=0;dropTarget=0;fillColor=none;points=[[0,0.5],[1,0.5]];portConstraint=eastwest;fontSize=16;" vertex="1" parent="hFmSIp24Sq1qc8hDh7Aj-35">
          <mxGeometry width="60" height="20" as="geometry" />
        </mxCell>
        <mxCell id="hFmSIp24Sq1qc8hDh7Aj-37" value="" style="shape=partialRectangle;html=1;whiteSpace=wrap;connectable=0;strokeColor=inherit;overflow=hidden;fillColor=none;top=0;left=0;bottom=0;right=0;pointerEvents=1;fontSize=16;" vertex="1" parent="hFmSIp24Sq1qc8hDh7Aj-36">
          <mxGeometry width="20" height="20" as="geometry">
            <mxRectangle width="20" height="20" as="alternateBounds" />
          </mxGeometry>
        </mxCell>
        <mxCell id="hFmSIp24Sq1qc8hDh7Aj-38" value="" style="shape=partialRectangle;html=1;whiteSpace=wrap;connectable=0;strokeColor=inherit;overflow=hidden;fillColor=none;top=0;left=0;bottom=0;right=0;pointerEvents=1;fontSize=16;" vertex="1" parent="hFmSIp24Sq1qc8hDh7Aj-36">
          <mxGeometry x="20" width="20" height="20" as="geometry">
            <mxRectangle width="20" height="20" as="alternateBounds" />
          </mxGeometry>
        </mxCell>
        <mxCell id="hFmSIp24Sq1qc8hDh7Aj-39" value="" style="shape=partialRectangle;html=1;whiteSpace=wrap;connectable=0;strokeColor=inherit;overflow=hidden;fillColor=none;top=0;left=0;bottom=0;right=0;pointerEvents=1;fontSize=16;" vertex="1" parent="hFmSIp24Sq1qc8hDh7Aj-36">
          <mxGeometry x="40" width="20" height="20" as="geometry">
            <mxRectangle width="20" height="20" as="alternateBounds" />
          </mxGeometry>
        </mxCell>
        <mxCell id="hFmSIp24Sq1qc8hDh7Aj-40" value="" style="shape=tableRow;horizontal=0;startSize=0;swimlaneHead=0;swimlaneBody=0;strokeColor=inherit;top=0;left=0;bottom=0;right=0;collapsible=0;dropTarget=0;fillColor=none;points=[[0,0.5],[1,0.5]];portConstraint=eastwest;fontSize=16;" vertex="1" parent="hFmSIp24Sq1qc8hDh7Aj-35">
          <mxGeometry y="20" width="60" height="16" as="geometry" />
        </mxCell>
        <mxCell id="hFmSIp24Sq1qc8hDh7Aj-41" value="" style="shape=partialRectangle;html=1;whiteSpace=wrap;connectable=0;strokeColor=inherit;overflow=hidden;fillColor=none;top=0;left=0;bottom=0;right=0;pointerEvents=1;fontSize=16;" vertex="1" parent="hFmSIp24Sq1qc8hDh7Aj-40">
          <mxGeometry width="20" height="16" as="geometry">
            <mxRectangle width="20" height="16" as="alternateBounds" />
          </mxGeometry>
        </mxCell>
        <mxCell id="hFmSIp24Sq1qc8hDh7Aj-42" value="" style="shape=partialRectangle;html=1;whiteSpace=wrap;connectable=0;strokeColor=inherit;overflow=hidden;fillColor=none;top=0;left=0;bottom=0;right=0;pointerEvents=1;fontSize=16;" vertex="1" parent="hFmSIp24Sq1qc8hDh7Aj-40">
          <mxGeometry x="20" width="20" height="16" as="geometry">
            <mxRectangle width="20" height="16" as="alternateBounds" />
          </mxGeometry>
        </mxCell>
        <mxCell id="hFmSIp24Sq1qc8hDh7Aj-43" value="" style="shape=partialRectangle;html=1;whiteSpace=wrap;connectable=0;strokeColor=inherit;overflow=hidden;fillColor=none;top=0;left=0;bottom=0;right=0;pointerEvents=1;fontSize=16;" vertex="1" parent="hFmSIp24Sq1qc8hDh7Aj-40">
          <mxGeometry x="40" width="20" height="16" as="geometry">
            <mxRectangle width="20" height="16" as="alternateBounds" />
          </mxGeometry>
        </mxCell>
        <mxCell id="hFmSIp24Sq1qc8hDh7Aj-44" value="" style="shape=tableRow;horizontal=0;startSize=0;swimlaneHead=0;swimlaneBody=0;strokeColor=inherit;top=0;left=0;bottom=0;right=0;collapsible=0;dropTarget=0;fillColor=none;points=[[0,0.5],[1,0.5]];portConstraint=eastwest;fontSize=16;" vertex="1" parent="hFmSIp24Sq1qc8hDh7Aj-35">
          <mxGeometry y="36" width="60" height="17" as="geometry" />
        </mxCell>
        <mxCell id="hFmSIp24Sq1qc8hDh7Aj-45" value="" style="shape=partialRectangle;html=1;whiteSpace=wrap;connectable=0;strokeColor=inherit;overflow=hidden;fillColor=none;top=0;left=0;bottom=0;right=0;pointerEvents=1;fontSize=16;" vertex="1" parent="hFmSIp24Sq1qc8hDh7Aj-44">
          <mxGeometry width="20" height="17" as="geometry">
            <mxRectangle width="20" height="17" as="alternateBounds" />
          </mxGeometry>
        </mxCell>
        <mxCell id="hFmSIp24Sq1qc8hDh7Aj-46" value="" style="shape=partialRectangle;html=1;whiteSpace=wrap;connectable=0;strokeColor=inherit;overflow=hidden;fillColor=none;top=0;left=0;bottom=0;right=0;pointerEvents=1;fontSize=16;" vertex="1" parent="hFmSIp24Sq1qc8hDh7Aj-44">
          <mxGeometry x="20" width="20" height="17" as="geometry">
            <mxRectangle width="20" height="17" as="alternateBounds" />
          </mxGeometry>
        </mxCell>
        <mxCell id="hFmSIp24Sq1qc8hDh7Aj-47" value="" style="shape=partialRectangle;html=1;whiteSpace=wrap;connectable=0;strokeColor=inherit;overflow=hidden;fillColor=none;top=0;left=0;bottom=0;right=0;pointerEvents=1;fontSize=16;" vertex="1" parent="hFmSIp24Sq1qc8hDh7Aj-44">
          <mxGeometry x="40" width="20" height="17" as="geometry">
            <mxRectangle width="20" height="17" as="alternateBounds" />
          </mxGeometry>
        </mxCell>
        <mxCell id="hFmSIp24Sq1qc8hDh7Aj-9" value="" style="shape=table;startSize=0;container=1;collapsible=0;childLayout=tableLayout;fontSize=16;movable=0;resizable=0;rotatable=0;deletable=0;editable=0;locked=1;connectable=0;" vertex="1" parent="1">
          <mxGeometry x="170" y="160" width="60" height="50" as="geometry" />
        </mxCell>
        <mxCell id="hFmSIp24Sq1qc8hDh7Aj-14" value="" style="shape=tableRow;horizontal=0;startSize=0;swimlaneHead=0;swimlaneBody=0;strokeColor=inherit;top=0;left=0;bottom=0;right=0;collapsible=0;dropTarget=0;fillColor=none;points=[[0,0.5],[1,0.5]];portConstraint=eastwest;fontSize=16;" vertex="1" parent="hFmSIp24Sq1qc8hDh7Aj-9">
          <mxGeometry width="60" height="16" as="geometry" />
        </mxCell>
        <mxCell id="hFmSIp24Sq1qc8hDh7Aj-15" value="" style="shape=partialRectangle;html=1;whiteSpace=wrap;connectable=0;strokeColor=inherit;overflow=hidden;fillColor=none;top=0;left=0;bottom=0;right=0;pointerEvents=1;fontSize=16;" vertex="1" parent="hFmSIp24Sq1qc8hDh7Aj-14">
          <mxGeometry width="20" height="16" as="geometry">
            <mxRectangle width="20" height="16" as="alternateBounds" />
          </mxGeometry>
        </mxCell>
        <mxCell id="hFmSIp24Sq1qc8hDh7Aj-16" value="" style="shape=partialRectangle;html=1;whiteSpace=wrap;connectable=0;strokeColor=inherit;overflow=hidden;fillColor=none;top=0;left=0;bottom=0;right=0;pointerEvents=1;fontSize=16;" vertex="1" parent="hFmSIp24Sq1qc8hDh7Aj-14">
          <mxGeometry x="20" width="20" height="16" as="geometry">
            <mxRectangle width="20" height="16" as="alternateBounds" />
          </mxGeometry>
        </mxCell>
        <mxCell id="hFmSIp24Sq1qc8hDh7Aj-17" value="" style="shape=partialRectangle;html=1;whiteSpace=wrap;connectable=0;strokeColor=inherit;overflow=hidden;fillColor=none;top=0;left=0;bottom=0;right=0;pointerEvents=1;fontSize=16;" vertex="1" parent="hFmSIp24Sq1qc8hDh7Aj-14">
          <mxGeometry x="40" width="20" height="16" as="geometry">
            <mxRectangle width="20" height="16" as="alternateBounds" />
          </mxGeometry>
        </mxCell>
        <mxCell id="hFmSIp24Sq1qc8hDh7Aj-10" value="" style="shape=tableRow;horizontal=0;startSize=0;swimlaneHead=0;swimlaneBody=0;strokeColor=inherit;top=0;left=0;bottom=0;right=0;collapsible=0;dropTarget=0;fillColor=none;points=[[0,0.5],[1,0.5]];portConstraint=eastwest;fontSize=16;" vertex="1" parent="hFmSIp24Sq1qc8hDh7Aj-9">
          <mxGeometry y="16" width="60" height="17" as="geometry" />
        </mxCell>
        <mxCell id="hFmSIp24Sq1qc8hDh7Aj-11" value="" style="shape=partialRectangle;html=1;whiteSpace=wrap;connectable=0;strokeColor=inherit;overflow=hidden;fillColor=none;top=0;left=0;bottom=0;right=0;pointerEvents=1;fontSize=16;" vertex="1" parent="hFmSIp24Sq1qc8hDh7Aj-10">
          <mxGeometry width="20" height="17" as="geometry">
            <mxRectangle width="20" height="17" as="alternateBounds" />
          </mxGeometry>
        </mxCell>
        <mxCell id="hFmSIp24Sq1qc8hDh7Aj-12" value="" style="shape=partialRectangle;html=1;whiteSpace=wrap;connectable=0;strokeColor=inherit;overflow=hidden;fillColor=none;top=0;left=0;bottom=0;right=0;pointerEvents=1;fontSize=16;" vertex="1" parent="hFmSIp24Sq1qc8hDh7Aj-10">
          <mxGeometry x="20" width="20" height="17" as="geometry">
            <mxRectangle width="20" height="17" as="alternateBounds" />
          </mxGeometry>
        </mxCell>
        <mxCell id="hFmSIp24Sq1qc8hDh7Aj-13" value="" style="shape=partialRectangle;html=1;whiteSpace=wrap;connectable=0;strokeColor=inherit;overflow=hidden;fillColor=none;top=0;left=0;bottom=0;right=0;pointerEvents=1;fontSize=16;" vertex="1" parent="hFmSIp24Sq1qc8hDh7Aj-10">
          <mxGeometry x="40" width="20" height="17" as="geometry">
            <mxRectangle width="20" height="17" as="alternateBounds" />
          </mxGeometry>
        </mxCell>
        <mxCell id="hFmSIp24Sq1qc8hDh7Aj-18" value="" style="shape=tableRow;horizontal=0;startSize=0;swimlaneHead=0;swimlaneBody=0;strokeColor=inherit;top=0;left=0;bottom=0;right=0;collapsible=0;dropTarget=0;fillColor=none;points=[[0,0.5],[1,0.5]];portConstraint=eastwest;fontSize=16;" vertex="1" parent="hFmSIp24Sq1qc8hDh7Aj-9">
          <mxGeometry y="33" width="60" height="17" as="geometry" />
        </mxCell>
        <mxCell id="hFmSIp24Sq1qc8hDh7Aj-19" value="" style="shape=partialRectangle;html=1;whiteSpace=wrap;connectable=0;strokeColor=inherit;overflow=hidden;fillColor=none;top=0;left=0;bottom=0;right=0;pointerEvents=1;fontSize=16;" vertex="1" parent="hFmSIp24Sq1qc8hDh7Aj-18">
          <mxGeometry width="20" height="17" as="geometry">
            <mxRectangle width="20" height="17" as="alternateBounds" />
          </mxGeometry>
        </mxCell>
        <mxCell id="hFmSIp24Sq1qc8hDh7Aj-20" value="" style="shape=partialRectangle;html=1;whiteSpace=wrap;connectable=0;strokeColor=inherit;overflow=hidden;fillColor=none;top=0;left=0;bottom=0;right=0;pointerEvents=1;fontSize=16;" vertex="1" parent="hFmSIp24Sq1qc8hDh7Aj-18">
          <mxGeometry x="20" width="20" height="17" as="geometry">
            <mxRectangle width="20" height="17" as="alternateBounds" />
          </mxGeometry>
        </mxCell>
        <mxCell id="hFmSIp24Sq1qc8hDh7Aj-21" value="" style="shape=partialRectangle;html=1;whiteSpace=wrap;connectable=0;strokeColor=inherit;overflow=hidden;fillColor=none;top=0;left=0;bottom=0;right=0;pointerEvents=1;fontSize=16;" vertex="1" parent="hFmSIp24Sq1qc8hDh7Aj-18">
          <mxGeometry x="40" width="20" height="17" as="geometry">
            <mxRectangle width="20" height="17" as="alternateBounds" />
          </mxGeometry>
        </mxCell>
        <mxCell id="hFmSIp24Sq1qc8hDh7Aj-48" value="Table 1" style="text;html=1;align=center;verticalAlign=middle;whiteSpace=wrap;rounded=0;" vertex="1" parent="1">
          <mxGeometry x="170" y="130" width="60" height="30" as="geometry" />
        </mxCell>
        <mxCell id="hFmSIp24Sq1qc8hDh7Aj-49" value="Table 2" style="text;html=1;align=center;verticalAlign=middle;whiteSpace=wrap;rounded=0;" vertex="1" parent="1">
          <mxGeometry x="170" y="240" width="60" height="30" as="geometry" />
        </mxCell>
        <mxCell id="hFmSIp24Sq1qc8hDh7Aj-50" value="Table 3" style="text;html=1;align=center;verticalAlign=middle;whiteSpace=wrap;rounded=0;" vertex="1" parent="1">
          <mxGeometry x="250" y="240" width="60" height="30" as="geometry" />
        </mxCell>
        <mxCell id="hFmSIp24Sq1qc8hDh7Aj-51" value="" style="shape=cylinder3;whiteSpace=wrap;html=1;boundedLbl=1;backgroundOutline=1;size=15;" vertex="1" parent="1">
          <mxGeometry x="400" y="90" width="180" height="270" as="geometry" />
        </mxCell>
        <mxCell id="hFmSIp24Sq1qc8hDh7Aj-67" value="" style="shape=table;startSize=0;container=1;collapsible=0;childLayout=tableLayout;fontSize=16;" vertex="1" parent="1">
          <mxGeometry x="460" y="170" width="60" height="50" as="geometry" />
        </mxCell>
        <mxCell id="hFmSIp24Sq1qc8hDh7Aj-68" value="" style="shape=tableRow;horizontal=0;startSize=0;swimlaneHead=0;swimlaneBody=0;strokeColor=inherit;top=0;left=0;bottom=0;right=0;collapsible=0;dropTarget=0;fillColor=none;points=[[0,0.5],[1,0.5]];portConstraint=eastwest;fontSize=16;" vertex="1" parent="hFmSIp24Sq1qc8hDh7Aj-67">
          <mxGeometry width="60" height="17" as="geometry" />
        </mxCell>
        <mxCell id="hFmSIp24Sq1qc8hDh7Aj-69" value="" style="shape=partialRectangle;html=1;whiteSpace=wrap;connectable=0;strokeColor=inherit;overflow=hidden;fillColor=none;top=0;left=0;bottom=0;right=0;pointerEvents=1;fontSize=16;" vertex="1" parent="hFmSIp24Sq1qc8hDh7Aj-68">
          <mxGeometry width="20" height="17" as="geometry">
            <mxRectangle width="20" height="17" as="alternateBounds" />
          </mxGeometry>
        </mxCell>
        <mxCell id="hFmSIp24Sq1qc8hDh7Aj-70" value="" style="shape=partialRectangle;html=1;whiteSpace=wrap;connectable=0;strokeColor=inherit;overflow=hidden;fillColor=none;top=0;left=0;bottom=0;right=0;pointerEvents=1;fontSize=16;" vertex="1" parent="hFmSIp24Sq1qc8hDh7Aj-68">
          <mxGeometry x="20" width="20" height="17" as="geometry">
            <mxRectangle width="20" height="17" as="alternateBounds" />
          </mxGeometry>
        </mxCell>
        <mxCell id="hFmSIp24Sq1qc8hDh7Aj-71" value="" style="shape=partialRectangle;html=1;whiteSpace=wrap;connectable=0;strokeColor=inherit;overflow=hidden;fillColor=none;top=0;left=0;bottom=0;right=0;pointerEvents=1;fontSize=16;" vertex="1" parent="hFmSIp24Sq1qc8hDh7Aj-68">
          <mxGeometry x="40" width="20" height="17" as="geometry">
            <mxRectangle width="20" height="17" as="alternateBounds" />
          </mxGeometry>
        </mxCell>
        <mxCell id="hFmSIp24Sq1qc8hDh7Aj-72" value="" style="shape=tableRow;horizontal=0;startSize=0;swimlaneHead=0;swimlaneBody=0;strokeColor=inherit;top=0;left=0;bottom=0;right=0;collapsible=0;dropTarget=0;fillColor=none;points=[[0,0.5],[1,0.5]];portConstraint=eastwest;fontSize=16;" vertex="1" parent="hFmSIp24Sq1qc8hDh7Aj-67">
          <mxGeometry y="17" width="60" height="16" as="geometry" />
        </mxCell>
        <mxCell id="hFmSIp24Sq1qc8hDh7Aj-73" value="" style="shape=partialRectangle;html=1;whiteSpace=wrap;connectable=0;strokeColor=inherit;overflow=hidden;fillColor=none;top=0;left=0;bottom=0;right=0;pointerEvents=1;fontSize=16;" vertex="1" parent="hFmSIp24Sq1qc8hDh7Aj-72">
          <mxGeometry width="20" height="16" as="geometry">
            <mxRectangle width="20" height="16" as="alternateBounds" />
          </mxGeometry>
        </mxCell>
        <mxCell id="hFmSIp24Sq1qc8hDh7Aj-74" value="" style="shape=partialRectangle;html=1;whiteSpace=wrap;connectable=0;strokeColor=inherit;overflow=hidden;fillColor=none;top=0;left=0;bottom=0;right=0;pointerEvents=1;fontSize=16;" vertex="1" parent="hFmSIp24Sq1qc8hDh7Aj-72">
          <mxGeometry x="20" width="20" height="16" as="geometry">
            <mxRectangle width="20" height="16" as="alternateBounds" />
          </mxGeometry>
        </mxCell>
        <mxCell id="hFmSIp24Sq1qc8hDh7Aj-75" value="" style="shape=partialRectangle;html=1;whiteSpace=wrap;connectable=0;strokeColor=inherit;overflow=hidden;fillColor=none;top=0;left=0;bottom=0;right=0;pointerEvents=1;fontSize=16;" vertex="1" parent="hFmSIp24Sq1qc8hDh7Aj-72">
          <mxGeometry x="40" width="20" height="16" as="geometry">
            <mxRectangle width="20" height="16" as="alternateBounds" />
          </mxGeometry>
        </mxCell>
        <mxCell id="hFmSIp24Sq1qc8hDh7Aj-76" value="" style="shape=tableRow;horizontal=0;startSize=0;swimlaneHead=0;swimlaneBody=0;strokeColor=inherit;top=0;left=0;bottom=0;right=0;collapsible=0;dropTarget=0;fillColor=none;points=[[0,0.5],[1,0.5]];portConstraint=eastwest;fontSize=16;" vertex="1" parent="hFmSIp24Sq1qc8hDh7Aj-67">
          <mxGeometry y="33" width="60" height="17" as="geometry" />
        </mxCell>
        <mxCell id="hFmSIp24Sq1qc8hDh7Aj-77" value="" style="shape=partialRectangle;html=1;whiteSpace=wrap;connectable=0;strokeColor=inherit;overflow=hidden;fillColor=none;top=0;left=0;bottom=0;right=0;pointerEvents=1;fontSize=16;" vertex="1" parent="hFmSIp24Sq1qc8hDh7Aj-76">
          <mxGeometry width="20" height="17" as="geometry">
            <mxRectangle width="20" height="17" as="alternateBounds" />
          </mxGeometry>
        </mxCell>
        <mxCell id="hFmSIp24Sq1qc8hDh7Aj-78" value="" style="shape=partialRectangle;html=1;whiteSpace=wrap;connectable=0;strokeColor=inherit;overflow=hidden;fillColor=none;top=0;left=0;bottom=0;right=0;pointerEvents=1;fontSize=16;" vertex="1" parent="hFmSIp24Sq1qc8hDh7Aj-76">
          <mxGeometry x="20" width="20" height="17" as="geometry">
            <mxRectangle width="20" height="17" as="alternateBounds" />
          </mxGeometry>
        </mxCell>
        <mxCell id="hFmSIp24Sq1qc8hDh7Aj-79" value="" style="shape=partialRectangle;html=1;whiteSpace=wrap;connectable=0;strokeColor=inherit;overflow=hidden;fillColor=none;top=0;left=0;bottom=0;right=0;pointerEvents=1;fontSize=16;" vertex="1" parent="hFmSIp24Sq1qc8hDh7Aj-76">
          <mxGeometry x="40" width="20" height="17" as="geometry">
            <mxRectangle width="20" height="17" as="alternateBounds" />
          </mxGeometry>
        </mxCell>
        <mxCell id="hFmSIp24Sq1qc8hDh7Aj-80" value="" style="shape=table;startSize=0;container=1;collapsible=0;childLayout=tableLayout;fontSize=16;" vertex="1" parent="1">
          <mxGeometry x="425" y="270" width="60" height="60" as="geometry" />
        </mxCell>
        <mxCell id="hFmSIp24Sq1qc8hDh7Aj-81" value="" style="shape=tableRow;horizontal=0;startSize=0;swimlaneHead=0;swimlaneBody=0;strokeColor=inherit;top=0;left=0;bottom=0;right=0;collapsible=0;dropTarget=0;fillColor=none;points=[[0,0.5],[1,0.5]];portConstraint=eastwest;fontSize=16;" vertex="1" parent="hFmSIp24Sq1qc8hDh7Aj-80">
          <mxGeometry width="60" height="20" as="geometry" />
        </mxCell>
        <mxCell id="hFmSIp24Sq1qc8hDh7Aj-82" value="" style="shape=partialRectangle;html=1;whiteSpace=wrap;connectable=0;strokeColor=inherit;overflow=hidden;fillColor=none;top=0;left=0;bottom=0;right=0;pointerEvents=1;fontSize=16;" vertex="1" parent="hFmSIp24Sq1qc8hDh7Aj-81">
          <mxGeometry width="20" height="20" as="geometry">
            <mxRectangle width="20" height="20" as="alternateBounds" />
          </mxGeometry>
        </mxCell>
        <mxCell id="hFmSIp24Sq1qc8hDh7Aj-83" value="" style="shape=partialRectangle;html=1;whiteSpace=wrap;connectable=0;strokeColor=inherit;overflow=hidden;fillColor=none;top=0;left=0;bottom=0;right=0;pointerEvents=1;fontSize=16;" vertex="1" parent="hFmSIp24Sq1qc8hDh7Aj-81">
          <mxGeometry x="20" width="20" height="20" as="geometry">
            <mxRectangle width="20" height="20" as="alternateBounds" />
          </mxGeometry>
        </mxCell>
        <mxCell id="hFmSIp24Sq1qc8hDh7Aj-84" value="" style="shape=partialRectangle;html=1;whiteSpace=wrap;connectable=0;strokeColor=inherit;overflow=hidden;fillColor=none;top=0;left=0;bottom=0;right=0;pointerEvents=1;fontSize=16;" vertex="1" parent="hFmSIp24Sq1qc8hDh7Aj-81">
          <mxGeometry x="40" width="20" height="20" as="geometry">
            <mxRectangle width="20" height="20" as="alternateBounds" />
          </mxGeometry>
        </mxCell>
        <mxCell id="hFmSIp24Sq1qc8hDh7Aj-85" value="" style="shape=tableRow;horizontal=0;startSize=0;swimlaneHead=0;swimlaneBody=0;strokeColor=inherit;top=0;left=0;bottom=0;right=0;collapsible=0;dropTarget=0;fillColor=none;points=[[0,0.5],[1,0.5]];portConstraint=eastwest;fontSize=16;" vertex="1" parent="hFmSIp24Sq1qc8hDh7Aj-80">
          <mxGeometry y="20" width="60" height="21" as="geometry" />
        </mxCell>
        <mxCell id="hFmSIp24Sq1qc8hDh7Aj-86" value="" style="shape=partialRectangle;html=1;whiteSpace=wrap;connectable=0;strokeColor=inherit;overflow=hidden;fillColor=none;top=0;left=0;bottom=0;right=0;pointerEvents=1;fontSize=16;" vertex="1" parent="hFmSIp24Sq1qc8hDh7Aj-85">
          <mxGeometry width="20" height="21" as="geometry">
            <mxRectangle width="20" height="21" as="alternateBounds" />
          </mxGeometry>
        </mxCell>
        <mxCell id="hFmSIp24Sq1qc8hDh7Aj-87" value="" style="shape=partialRectangle;html=1;whiteSpace=wrap;connectable=0;strokeColor=inherit;overflow=hidden;fillColor=none;top=0;left=0;bottom=0;right=0;pointerEvents=1;fontSize=16;" vertex="1" parent="hFmSIp24Sq1qc8hDh7Aj-85">
          <mxGeometry x="20" width="20" height="21" as="geometry">
            <mxRectangle width="20" height="21" as="alternateBounds" />
          </mxGeometry>
        </mxCell>
        <mxCell id="hFmSIp24Sq1qc8hDh7Aj-88" value="" style="shape=partialRectangle;html=1;whiteSpace=wrap;connectable=0;strokeColor=inherit;overflow=hidden;fillColor=none;top=0;left=0;bottom=0;right=0;pointerEvents=1;fontSize=16;" vertex="1" parent="hFmSIp24Sq1qc8hDh7Aj-85">
          <mxGeometry x="40" width="20" height="21" as="geometry">
            <mxRectangle width="20" height="21" as="alternateBounds" />
          </mxGeometry>
        </mxCell>
        <mxCell id="hFmSIp24Sq1qc8hDh7Aj-89" value="" style="shape=tableRow;horizontal=0;startSize=0;swimlaneHead=0;swimlaneBody=0;strokeColor=inherit;top=0;left=0;bottom=0;right=0;collapsible=0;dropTarget=0;fillColor=none;points=[[0,0.5],[1,0.5]];portConstraint=eastwest;fontSize=16;" vertex="1" parent="hFmSIp24Sq1qc8hDh7Aj-80">
          <mxGeometry y="41" width="60" height="19" as="geometry" />
        </mxCell>
        <mxCell id="hFmSIp24Sq1qc8hDh7Aj-90" value="" style="shape=partialRectangle;html=1;whiteSpace=wrap;connectable=0;strokeColor=inherit;overflow=hidden;fillColor=none;top=0;left=0;bottom=0;right=0;pointerEvents=1;fontSize=16;" vertex="1" parent="hFmSIp24Sq1qc8hDh7Aj-89">
          <mxGeometry width="20" height="19" as="geometry">
            <mxRectangle width="20" height="19" as="alternateBounds" />
          </mxGeometry>
        </mxCell>
        <mxCell id="hFmSIp24Sq1qc8hDh7Aj-91" value="" style="shape=partialRectangle;html=1;whiteSpace=wrap;connectable=0;strokeColor=inherit;overflow=hidden;fillColor=none;top=0;left=0;bottom=0;right=0;pointerEvents=1;fontSize=16;" vertex="1" parent="hFmSIp24Sq1qc8hDh7Aj-89">
          <mxGeometry x="20" width="20" height="19" as="geometry">
            <mxRectangle width="20" height="19" as="alternateBounds" />
          </mxGeometry>
        </mxCell>
        <mxCell id="hFmSIp24Sq1qc8hDh7Aj-92" value="" style="shape=partialRectangle;html=1;whiteSpace=wrap;connectable=0;strokeColor=inherit;overflow=hidden;fillColor=none;top=0;left=0;bottom=0;right=0;pointerEvents=1;fontSize=16;" vertex="1" parent="hFmSIp24Sq1qc8hDh7Aj-89">
          <mxGeometry x="40" width="20" height="19" as="geometry">
            <mxRectangle width="20" height="19" as="alternateBounds" />
          </mxGeometry>
        </mxCell>
        <mxCell id="hFmSIp24Sq1qc8hDh7Aj-93" value="" style="shape=table;startSize=0;container=1;collapsible=0;childLayout=tableLayout;fontSize=16;" vertex="1" parent="1">
          <mxGeometry x="500" y="270" width="60" height="60" as="geometry" />
        </mxCell>
        <mxCell id="hFmSIp24Sq1qc8hDh7Aj-94" value="" style="shape=tableRow;horizontal=0;startSize=0;swimlaneHead=0;swimlaneBody=0;strokeColor=inherit;top=0;left=0;bottom=0;right=0;collapsible=0;dropTarget=0;fillColor=none;points=[[0,0.5],[1,0.5]];portConstraint=eastwest;fontSize=16;" vertex="1" parent="hFmSIp24Sq1qc8hDh7Aj-93">
          <mxGeometry width="60" height="20" as="geometry" />
        </mxCell>
        <mxCell id="hFmSIp24Sq1qc8hDh7Aj-95" value="" style="shape=partialRectangle;html=1;whiteSpace=wrap;connectable=0;strokeColor=inherit;overflow=hidden;fillColor=none;top=0;left=0;bottom=0;right=0;pointerEvents=1;fontSize=16;" vertex="1" parent="hFmSIp24Sq1qc8hDh7Aj-94">
          <mxGeometry width="20" height="20" as="geometry">
            <mxRectangle width="20" height="20" as="alternateBounds" />
          </mxGeometry>
        </mxCell>
        <mxCell id="hFmSIp24Sq1qc8hDh7Aj-96" value="" style="shape=partialRectangle;html=1;whiteSpace=wrap;connectable=0;strokeColor=inherit;overflow=hidden;fillColor=none;top=0;left=0;bottom=0;right=0;pointerEvents=1;fontSize=16;" vertex="1" parent="hFmSIp24Sq1qc8hDh7Aj-94">
          <mxGeometry x="20" width="20" height="20" as="geometry">
            <mxRectangle width="20" height="20" as="alternateBounds" />
          </mxGeometry>
        </mxCell>
        <mxCell id="hFmSIp24Sq1qc8hDh7Aj-97" value="" style="shape=partialRectangle;html=1;whiteSpace=wrap;connectable=0;strokeColor=inherit;overflow=hidden;fillColor=none;top=0;left=0;bottom=0;right=0;pointerEvents=1;fontSize=16;" vertex="1" parent="hFmSIp24Sq1qc8hDh7Aj-94">
          <mxGeometry x="40" width="20" height="20" as="geometry">
            <mxRectangle width="20" height="20" as="alternateBounds" />
          </mxGeometry>
        </mxCell>
        <mxCell id="hFmSIp24Sq1qc8hDh7Aj-98" value="" style="shape=tableRow;horizontal=0;startSize=0;swimlaneHead=0;swimlaneBody=0;strokeColor=inherit;top=0;left=0;bottom=0;right=0;collapsible=0;dropTarget=0;fillColor=none;points=[[0,0.5],[1,0.5]];portConstraint=eastwest;fontSize=16;" vertex="1" parent="hFmSIp24Sq1qc8hDh7Aj-93">
          <mxGeometry y="20" width="60" height="21" as="geometry" />
        </mxCell>
        <mxCell id="hFmSIp24Sq1qc8hDh7Aj-99" value="" style="shape=partialRectangle;html=1;whiteSpace=wrap;connectable=0;strokeColor=inherit;overflow=hidden;fillColor=none;top=0;left=0;bottom=0;right=0;pointerEvents=1;fontSize=16;" vertex="1" parent="hFmSIp24Sq1qc8hDh7Aj-98">
          <mxGeometry width="20" height="21" as="geometry">
            <mxRectangle width="20" height="21" as="alternateBounds" />
          </mxGeometry>
        </mxCell>
        <mxCell id="hFmSIp24Sq1qc8hDh7Aj-100" value="" style="shape=partialRectangle;html=1;whiteSpace=wrap;connectable=0;strokeColor=inherit;overflow=hidden;fillColor=none;top=0;left=0;bottom=0;right=0;pointerEvents=1;fontSize=16;" vertex="1" parent="hFmSIp24Sq1qc8hDh7Aj-98">
          <mxGeometry x="20" width="20" height="21" as="geometry">
            <mxRectangle width="20" height="21" as="alternateBounds" />
          </mxGeometry>
        </mxCell>
        <mxCell id="hFmSIp24Sq1qc8hDh7Aj-101" value="" style="shape=partialRectangle;html=1;whiteSpace=wrap;connectable=0;strokeColor=inherit;overflow=hidden;fillColor=none;top=0;left=0;bottom=0;right=0;pointerEvents=1;fontSize=16;" vertex="1" parent="hFmSIp24Sq1qc8hDh7Aj-98">
          <mxGeometry x="40" width="20" height="21" as="geometry">
            <mxRectangle width="20" height="21" as="alternateBounds" />
          </mxGeometry>
        </mxCell>
        <mxCell id="hFmSIp24Sq1qc8hDh7Aj-102" value="" style="shape=tableRow;horizontal=0;startSize=0;swimlaneHead=0;swimlaneBody=0;strokeColor=inherit;top=0;left=0;bottom=0;right=0;collapsible=0;dropTarget=0;fillColor=none;points=[[0,0.5],[1,0.5]];portConstraint=eastwest;fontSize=16;" vertex="1" parent="hFmSIp24Sq1qc8hDh7Aj-93">
          <mxGeometry y="41" width="60" height="19" as="geometry" />
        </mxCell>
        <mxCell id="hFmSIp24Sq1qc8hDh7Aj-103" value="" style="shape=partialRectangle;html=1;whiteSpace=wrap;connectable=0;strokeColor=inherit;overflow=hidden;fillColor=none;top=0;left=0;bottom=0;right=0;pointerEvents=1;fontSize=16;" vertex="1" parent="hFmSIp24Sq1qc8hDh7Aj-102">
          <mxGeometry width="20" height="19" as="geometry">
            <mxRectangle width="20" height="19" as="alternateBounds" />
          </mxGeometry>
        </mxCell>
        <mxCell id="hFmSIp24Sq1qc8hDh7Aj-104" value="" style="shape=partialRectangle;html=1;whiteSpace=wrap;connectable=0;strokeColor=inherit;overflow=hidden;fillColor=none;top=0;left=0;bottom=0;right=0;pointerEvents=1;fontSize=16;" vertex="1" parent="hFmSIp24Sq1qc8hDh7Aj-102">
          <mxGeometry x="20" width="20" height="19" as="geometry">
            <mxRectangle width="20" height="19" as="alternateBounds" />
          </mxGeometry>
        </mxCell>
        <mxCell id="hFmSIp24Sq1qc8hDh7Aj-105" value="" style="shape=partialRectangle;html=1;whiteSpace=wrap;connectable=0;strokeColor=inherit;overflow=hidden;fillColor=none;top=0;left=0;bottom=0;right=0;pointerEvents=1;fontSize=16;" vertex="1" parent="hFmSIp24Sq1qc8hDh7Aj-102">
          <mxGeometry x="40" width="20" height="19" as="geometry">
            <mxRectangle width="20" height="19" as="alternateBounds" />
          </mxGeometry>
        </mxCell>
        <mxCell id="hFmSIp24Sq1qc8hDh7Aj-106" value="table1" style="text;html=1;align=center;verticalAlign=middle;whiteSpace=wrap;rounded=0;" vertex="1" parent="1">
          <mxGeometry x="460" y="140" width="60" height="30" as="geometry" />
        </mxCell>
        <mxCell id="hFmSIp24Sq1qc8hDh7Aj-107" value="table3&lt;span style=&quot;color: rgba(0, 0, 0, 0); font-family: monospace; font-size: 0px; text-align: start; text-wrap-mode: nowrap;&quot;&gt;%3CmxGraphModel%3E%3Croot%3E%3CmxCell%20id%3D%220%22%2F%3E%3CmxCell%20id%3D%221%22%20parent%3D%220%22%2F%3E%3CmxCell%20id%3D%222%22%20value%3D%22table1%22%20style%3D%22text%3Bhtml%3D1%3Balign%3Dcenter%3BverticalAlign%3Dmiddle%3BwhiteSpace%3Dwrap%3Brounded%3D0%3B%22%20vertex%3D%221%22%20parent%3D%221%22%3E%3CmxGeometry%20x%3D%22460%22%20y%3D%22140%22%20width%3D%2260%22%20height%3D%2230%22%20as%3D%22geometry%22%2F%3E%3C%2FmxCell%3E%3C%2Froot%3E%3C%2FmxGraphModel%3&lt;/span&gt;" style="text;html=1;align=center;verticalAlign=middle;whiteSpace=wrap;rounded=0;" vertex="1" parent="1">
          <mxGeometry x="425" y="240" width="60" height="30" as="geometry" />
        </mxCell>
        <mxCell id="hFmSIp24Sq1qc8hDh7Aj-109" value="table2&lt;span style=&quot;color: rgba(0, 0, 0, 0); font-family: monospace; font-size: 0px; text-align: start; text-wrap-mode: nowrap;&quot;&gt;%3CmxGraphModel%3E%3Croot%3E%3CmxCell%20id%3D%220%22%2F%3E%3CmxCell%20id%3D%221%22%20parent%3D%220%22%2F%3E%3CmxCell%20id%3D%222%22%20value%3D%22table1%22%20style%3D%22text%3Bhtml%3D1%3Balign%3Dcenter%3BverticalAlign%3Dmiddle%3BwhiteSpace%3Dwrap%3Brounded%3D0%3B%22%20vertex%3D%221%22%20parent%3D%221%22%3E%3CmxGeometry%20x%3D%22460%22%20y%3D%22140%22%20width%3D%2260%22%20height%3D%2230%22%20as%3D%22geometry%22%2F%3E%3C%2FmxCell%3E%3C%2Froot%3E%3C%2FmxGraphModel%3E&lt;/span&gt;" style="text;html=1;align=center;verticalAlign=middle;whiteSpace=wrap;rounded=0;" vertex="1" parent="1">
          <mxGeometry x="510" y="250" width="60" height="30" as="geometry" />
        </mxCell>
      </root>
    </mxGraphModel>
  </diagram>
</mxfile>
